# xmcd
#
# Track frame offsets:
#	150
#	20605
#	44033
#	68418
#	83325
#	106648
#	128178
#	150775
#	169875
#	188048
#	209933
#	230473
#	248583
#	269800
#
# Disc length: 3882 seconds
#
# Revision: 0
# Processed by: cddbd v1.5.2PL0 Copyright (c) Steve Scherf et al.
# Submitted via: EasyCDDAExtractor 16.0.9.1
#
DISCID=b60f280e
DTITLE=Khánh Hà - Khánh Hà: Cõi Tình
DYEAR=1990
DGENRE=Pop
TTITLE0=Cõi Tình
TTITLE1=Để Quên Con Tim
TTITLE2=Cuối Cùng Cho Một Tình Yêu
TTITLE3=Tình Đến Rồi Đi
TTITLE4=Em Đi
TTITLE5=Bản Tình Cuối
TTITLE6=Yêu
TTITLE7=Thoáng Mây Bay
TTITLE8=Bay Đi Cánh Chim Biển
TTITLE9=Phù Du
TTITLE10=Ngất Ngây Bên Anh
TTITLE11=Giữ Gìn Tình Anh (Saving All My Love For You)
TTITLE12=Mùa Đông Sắp Đến
TTITLE13=Nghìn Năm Vẫn Không Quên
EXTD=
EXTT0=
EXTT1=
EXTT2=
EXTT3=
EXTT4=
EXTT5=
EXTT6=
EXTT7=
EXTT8=
EXTT9=
EXTT10=
EXTT11=
EXTT12=
EXTT13=
PLAYORDER=
